<svg width="151" height="35" viewBox="0 0 151 35" fill="none" xmlns="http://www.w3.org/2000/svg">
<g id="Group 2">
<line id="Line 1" x1="4" y1="15.8182" x2="4" y2="19.1818" stroke="white" stroke-width="8" stroke-linecap="round"/>
<line id="Line 11" x1="115.035" y1="17.1818" x2="115.035" y2="18.2727" stroke="white" stroke-width="8" stroke-linecap="round"/>
<line id="Line 2" x1="14.0941" y1="12.1818" x2="14.0941" y2="22.8182" stroke="white" stroke-width="8" stroke-linecap="round"/>
<line id="Line 29" x1="24.1883" y1="9.90909" x2="24.1883" y2="25.0909" stroke="white" stroke-width="8" stroke-linecap="round"/>
<line id="Line 12" x1="126.812" y1="14.4545" x2="126.812" y2="20.5455" stroke="white" stroke-width="8" stroke-linecap="round"/>
<line id="Line 3" x1="34.2823" y1="4" x2="34.2823" y2="31" stroke="white" stroke-width="8" stroke-linecap="round"/>
<line id="Line 13" x1="136.906" y1="4" x2="136.906" y2="31" stroke="white" stroke-width="8" stroke-linecap="round"/>
<line id="Line 4" x1="44.3765" y1="7.18182" x2="44.3765" y2="28.2727" stroke="white" stroke-width="8" stroke-linecap="round"/>
<line id="Line 14" x1="147" y1="9.90909" x2="147" y2="25.0909" stroke="white" stroke-width="8" stroke-linecap="round"/>
<line id="Line 5" x1="54.4706" y1="12.1818" x2="54.4706" y2="27.3636" stroke="white" stroke-width="8" stroke-linecap="round"/>
<line id="Line 6" x1="65.4059" y1="4" x2="65.4059" y2="31" stroke="white" stroke-width="8" stroke-linecap="round"/>
<line id="Line 7" x1="75.5" y1="9.90909" x2="75.5" y2="25.0909" stroke="white" stroke-width="8" stroke-linecap="round"/>
<line id="Line 8" x1="85.5941" y1="4" x2="85.5941" y2="31" stroke="white" stroke-width="8" stroke-linecap="round"/>
<line id="Line 9" x1="95.6882" y1="14.4545" x2="95.6882" y2="20.5455" stroke="white" stroke-width="8" stroke-linecap="round"/>
<line id="Line 10" x1="104.941" y1="12.6364" x2="104.941" y2="22.3636" stroke="white" stroke-width="8" stroke-linecap="round"/>
</g>
</svg>
