<svg width="53" height="8" viewBox="0 0 53 8" fill="none" xmlns="http://www.w3.org/2000/svg">
<g id="Group 1089">
<path id="Ellipse 465" opacity="0.5" d="M8 4C8 6.20914 6.20914 8 4 8C1.79086 8 0 6.20914 0 4C0 1.79086 1.79086 0 4 0C6.20914 0 8 1.79086 8 4Z" fill="#7B8085"/>
<path id="Ellipse 467" opacity="0.5" d="M53 4C53 6.20914 51.2091 8 49 8C46.7909 8 45 6.20914 45 4C45 1.79086 46.7909 0 49 0C51.2091 0 53 1.79086 53 4Z" fill="#7B8085"/>
<path id="Rectangle 1204" d="M16 4C16 1.79086 17.7909 0 20 0H33C35.2091 0 37 1.79086 37 4C37 6.20914 35.2091 8 33 8H20C17.7909 8 16 6.20914 16 4Z" fill="#525298"/>
</g>
</svg>
