<svg width="70" height="70" viewBox="0 0 70 70" fill="none" xmlns="http://www.w3.org/2000/svg">
<path d="M0 35C0 19.0001 0 11.0002 4.72901 5.83938C5.0828 5.45328 5.45328 5.0828 5.83938 4.72901C11.0002 0 19.0001 0 35 0C50.9999 0 58.9998 0 64.1606 4.72901C64.5467 5.0828 64.9172 5.45328 65.271 5.83938C70 11.0002 70 19.0001 70 35C70 50.9999 70 58.9998 65.271 64.1606C64.9172 64.5467 64.5467 64.9172 64.1606 65.271C58.9998 70 50.9999 70 35 70C19.0001 70 11.0002 70 5.83938 65.271C5.45328 64.9172 5.0828 64.5467 4.72901 64.1606C0 58.9998 0 50.9999 0 35Z" fill="white"/>
</svg>
