<svg width="25" height="24" viewBox="0 0 25 24" fill="none" xmlns="http://www.w3.org/2000/svg">
<g id="User">
<path id="Vector" fill-rule="evenodd" clip-rule="evenodd" d="M12.5 10.8C13.4548 10.8 14.3705 10.4207 15.0456 9.74559C15.7207 9.07046 16.1 8.15479 16.1 7.20001C16.1 6.24523 15.7207 5.32955 15.0456 4.65442C14.3705 3.97929 13.4548 3.60001 12.5 3.60001C11.5452 3.60001 10.6295 3.97929 9.95441 4.65442C9.27928 5.32955 8.9 6.24523 8.9 7.20001C8.9 8.15479 9.27928 9.07046 9.95441 9.74559C10.6295 10.4207 11.5452 10.8 12.5 10.8ZM4.1 21.6C4.1 20.4969 4.31727 19.4046 4.73941 18.3855C5.16155 17.3663 5.78029 16.4403 6.5603 15.6603C7.34031 14.8803 8.26632 14.2616 9.28546 13.8394C10.3046 13.4173 11.3969 13.2 12.5 13.2C13.6031 13.2 14.6954 13.4173 15.7145 13.8394C16.7337 14.2616 17.6597 14.8803 18.4397 15.6603C19.2197 16.4403 19.8384 17.3663 20.2606 18.3855C20.6827 19.4046 20.9 20.4969 20.9 21.6H4.1Z" fill="#8B8C8C"/>
</g>
</svg>
